<svg width="26" height="26" viewBox="0 0 26 26" fill="none" xmlns="http://www.w3.org/2000/svg">
<rect width="26" height="26" rx="6" fill="#B5B5B5"/>
<path d="M19.873 4.49015C19.9702 4.474 20.0632 4.43886 20.1468 4.38675C20.2304 4.33464 20.3029 4.26657 20.3602 4.18644C20.4175 4.1063 20.4585 4.01566 20.4807 3.9197C20.503 3.82374 20.5062 3.72433 20.49 3.62715C20.4738 3.52997 20.4387 3.43693 20.3866 3.35333C20.3345 3.26973 20.2664 3.19721 20.1863 3.13992C20.1061 3.08263 20.0155 3.04168 19.9195 3.01941C19.8236 2.99715 19.7242 2.994 19.627 3.01015L13.627 4.01015C13.4767 4.03503 13.3375 4.1051 13.228 4.21104C13.1185 4.31697 13.0438 4.45374 13.014 4.60315L12.736 6.00015H5.75C5.55109 6.00015 5.36032 6.07917 5.21967 6.21982C5.07902 6.36047 5 6.55124 5 6.75015V10.7502C5.00009 11.5688 5.30911 12.3572 5.86528 12.9579C6.42145 13.5585 7.18381 13.9272 8 13.9902V14.5002C8 16.4532 9.4 18.0792 11.25 18.4302V21.5002H8.75C8.55109 21.5002 8.36032 21.5792 8.21967 21.7198C8.07902 21.8605 8 22.0512 8 22.2502C8 22.4491 8.07902 22.6398 8.21967 22.7805C8.36032 22.9211 8.55109 23.0002 8.75 23.0002H15.25C15.4489 23.0002 15.6397 22.9211 15.7803 22.7805C15.921 22.6398 16 22.4491 16 22.2502C16 22.0512 15.921 21.8605 15.7803 21.7198C15.6397 21.5792 15.4489 21.5002 15.25 21.5002H12.75V18.4302C13.6643 18.2554 14.4891 17.7674 15.0823 17.0501C15.6755 16.3327 16 15.431 16 14.5002V13.9902C16.8162 13.9272 17.5785 13.5585 18.1347 12.9579C18.6909 12.3572 18.9999 11.5688 19 10.7502V6.75015C19 6.55124 18.921 6.36047 18.7803 6.21982C18.6397 6.07917 18.4489 6.00015 18.25 6.00015H14.265L14.384 5.40515L19.874 4.49015H19.873ZM17.5 9.00015H13.665L13.965 7.50015H17.5V9.00015ZM13.365 10.5002H17.5V10.7502C17.5 11.2143 17.3156 11.6594 16.9874 11.9876C16.6592 12.3158 16.2141 12.5002 15.75 12.5002H15.25C15.0511 12.5002 14.8603 12.5792 14.7197 12.7198C14.579 12.8605 14.5 13.0512 14.5 13.2502V14.5002C14.5 15.1632 14.2366 15.7991 13.7678 16.2679C13.2989 16.7368 12.663 17.0002 12 17.0002C11.337 17.0002 10.7011 16.7368 10.2322 16.2679C9.76339 15.7991 9.5 15.1632 9.5 14.5002V13.2502C9.5 13.0512 9.42098 12.8605 9.28033 12.7198C9.13968 12.5792 8.94891 12.5002 8.75 12.5002H8.25C7.78587 12.5002 7.34075 12.3158 7.01256 11.9876C6.68437 11.6594 6.5 11.2143 6.5 10.7502V10.5002H11.835L11.015 14.6032C10.9919 14.7011 10.9887 14.8027 11.0057 14.902C11.0227 15.0012 11.0594 15.096 11.1138 15.1807C11.1682 15.2654 11.2391 15.3383 11.3223 15.395C11.4054 15.4517 11.4991 15.4912 11.5979 15.5109C11.6966 15.5306 11.7982 15.5303 11.8968 15.5099C11.9954 15.4895 12.0889 15.4495 12.1716 15.3922C12.2544 15.335 12.3248 15.2616 12.3787 15.1766C12.4325 15.0915 12.4687 14.9965 12.485 14.8972L13.365 10.5002ZM12.135 9.00015H6.5V7.50015H12.435L12.135 9.00015Z" fill="#131313"/>
</svg>
