<svg width="19" height="22" viewBox="0 0 19 22" fill="none" xmlns="http://www.w3.org/2000/svg">
<path d="M12.1179 8.001C12.5779 6.574 12.8109 5.324 12.8109 4.247C12.8109 1.849 11.8719 0 10.3109 0C9.46394 0 9.20194 0.504 8.87394 1.747C8.89194 1.682 8.71094 2.381 8.65894 2.568C8.55794 2.927 8.38194 3.538 8.13194 4.399C8.12515 4.42201 8.11505 4.4439 8.10194 4.464L5.23594 8.95C4.55761 10.0108 3.55693 10.8261 2.38094 11.276L1.12394 11.758C0.739735 11.9052 0.419674 12.183 0.219971 12.5428C0.0202684 12.9025 -0.0463052 13.3211 0.0319428 13.725L0.717943 17.264C0.79978 17.6861 1.00085 18.0759 1.29735 18.3873C1.59384 18.6987 1.97335 18.9186 2.39094 19.021L10.6409 21.043C11.857 21.3409 13.1416 21.1467 14.2152 20.5025C15.2888 19.8583 16.0646 18.8162 16.3739 17.603L17.9479 11.43C18.0516 11.0239 18.061 10.5996 17.9756 10.1893C17.8901 9.77901 17.712 9.39369 17.4549 9.06276C17.1978 8.73183 16.8684 8.46404 16.492 8.27985C16.1156 8.09566 15.702 7.99994 15.2829 8L12.1179 8.001Z" fill="#131313"/>
</svg>
