<svg width="46" height="62" viewBox="0 0 46 62" fill="none" xmlns="http://www.w3.org/2000/svg">
<g filter="url(#filter0_dd_31_127)">
<rect x="8" y="16" width="30" height="30" rx="15" fill="#F1F1F1"/>
<path d="M22.94 33C22.1067 33 21.3983 32.7083 20.815 32.125C20.2317 31.5417 19.94 30.8333 19.94 30V24C19.94 23.1667 20.2317 22.4583 20.815 21.875C21.3983 21.2917 22.1067 21 22.94 21C23.7733 21 24.4817 21.2917 25.065 21.875C25.6483 22.4583 25.94 23.1667 25.94 24V30C25.94 30.8333 25.6483 31.5417 25.065 32.125C24.4817 32.7083 23.7733 33 22.94 33ZM22.94 40C22.6567 40 22.419 39.904 22.227 39.712C22.035 39.52 21.9393 39.2827 21.94 39V36.925C20.39 36.7083 19.0733 36.0583 17.99 34.975C16.9067 33.8917 16.2483 32.5917 16.015 31.075C15.965 30.7917 16.04 30.5417 16.24 30.325C16.44 30.1083 16.7067 30 17.04 30C17.2733 30 17.4817 30.0877 17.665 30.263C17.8483 30.4383 17.965 30.6507 18.015 30.9C18.2317 32.0667 18.7983 33.0417 19.715 33.825C20.6317 34.6083 21.7067 35 22.94 35C24.1733 35 25.2483 34.6083 26.165 33.825C27.0817 33.0417 27.6483 32.0667 27.865 30.9C27.915 30.65 28.0357 30.4373 28.227 30.262C28.4183 30.0867 28.631 29.9993 28.865 30C29.1817 30 29.44 30.1083 29.64 30.325C29.84 30.5417 29.915 30.7917 29.865 31.075C29.6317 32.5917 28.9733 33.8917 27.89 34.975C26.8067 36.0583 25.49 36.7083 23.94 36.925V39C23.94 39.2833 23.844 39.521 23.652 39.713C23.46 39.905 23.2227 40.0007 22.94 40ZM22.94 31C23.2233 31 23.461 30.904 23.653 30.712C23.845 30.52 23.9407 30.2827 23.94 30V24C23.94 23.7167 23.844 23.479 23.652 23.287C23.46 23.095 23.2227 22.9993 22.94 23C22.6567 23 22.419 23.096 22.227 23.288C22.035 23.48 21.9393 23.7173 21.94 24V30C21.94 30.2833 22.036 30.521 22.228 30.713C22.42 30.905 22.6573 31.0007 22.94 31Z" fill="#131313"/>
</g>
<defs>
<filter id="filter0_dd_31_127" x="0" y="0" width="46" height="62" filterUnits="userSpaceOnUse" color-interpolation-filters="sRGB">
<feFlood flood-opacity="0" result="BackgroundImageFix"/>
<feColorMatrix in="SourceAlpha" type="matrix" values="0 0 0 0 0 0 0 0 0 0 0 0 0 0 0 0 0 0 127 0" result="hardAlpha"/>
<feOffset dy="8"/>
<feGaussianBlur stdDeviation="4"/>
<feComposite in2="hardAlpha" operator="out"/>
<feColorMatrix type="matrix" values="0 0 0 0 0 0 0 0 0 0 0 0 0 0 0 0 0 0 0.25 0"/>
<feBlend mode="normal" in2="BackgroundImageFix" result="effect1_dropShadow_31_127"/>
<feColorMatrix in="SourceAlpha" type="matrix" values="0 0 0 0 0 0 0 0 0 0 0 0 0 0 0 0 0 0 127 0" result="hardAlpha"/>
<feOffset dy="-8"/>
<feGaussianBlur stdDeviation="4"/>
<feComposite in2="hardAlpha" operator="out"/>
<feColorMatrix type="matrix" values="0 0 0 0 0.945098 0 0 0 0 0.945098 0 0 0 0 0.945098 0 0 0 0.3 0"/>
<feBlend mode="normal" in2="effect1_dropShadow_31_127" result="effect2_dropShadow_31_127"/>
<feBlend mode="normal" in="SourceGraphic" in2="effect2_dropShadow_31_127" result="shape"/>
</filter>
</defs>
</svg>
