<svg width="32" height="32" viewBox="0 0 32 32" fill="none" xmlns="http://www.w3.org/2000/svg">
<path d="M10.5038 25.5067C10.1679 25.1779 10 24.7593 10 24.2511C10 23.7429 10.1679 23.3244 10.5038 22.9955L17.6488 16L10.5038 9.00448C10.1679 8.67564 10 8.2571 10 7.74888C10 7.24066 10.1679 6.82212 10.5038 6.49327C10.8397 6.16442 11.2672 6 11.7863 6C12.3053 6 12.7328 6.16442 13.0687 6.49327L21.4962 14.7444C21.6794 14.9238 21.8094 15.1181 21.8864 15.3274C21.9633 15.5366 22.0012 15.7608 22 16C22 16.2392 21.9615 16.4634 21.8846 16.6726C21.8076 16.8819 21.6781 17.0762 21.4962 17.2556L13.0687 25.5067C12.7328 25.8356 12.3053 26 11.7863 26C11.2672 26 10.8397 25.8356 10.5038 25.5067Z" fill="black"/>
</svg>
