<svg width="18" height="22" viewBox="0 0 18 22" fill="none" xmlns="http://www.w3.org/2000/svg">
<path d="M4.32779 16.9804C4.32779 19.4224 5.46779 21.1804 7.33479 21.1804C8.36079 21.1804 8.71279 20.5784 9.08079 19.1804C9.15579 18.8904 9.19279 18.7504 9.23179 18.6114C9.33279 18.2534 9.50879 17.6414 9.75879 16.7814C9.76562 16.7584 9.77573 16.7365 9.78879 16.7164L12.6538 12.2304C13.332 11.1693 14.3327 10.3536 15.5088 9.90342L15.9818 9.72242C16.5857 9.49109 17.0888 9.0543 17.4027 8.48881C17.7165 7.92332 17.821 7.26531 17.6978 6.63042L17.2938 4.54442C17.1756 3.93464 16.8851 3.3715 16.4567 2.9217C16.0284 2.4719 15.4801 2.15427 14.8768 2.00642L7.24879 0.136419C6.03271 -0.161503 4.74818 0.0327606 3.67458 0.67696C2.60097 1.32116 1.82513 2.36319 1.51579 3.57642L0.100794 9.12642C-0.0215702 9.60631 -0.0326424 10.1078 0.0684204 10.5926C0.169483 11.0775 0.380011 11.5328 0.68392 11.9238C0.987829 12.3148 1.37708 12.6312 1.82196 12.8489C2.26683 13.0665 2.75555 13.1795 3.25079 13.1794H5.07279C4.57679 14.8124 4.32779 16.0714 4.32779 16.9804ZM16.2278 6.91642C16.2837 7.20494 16.2361 7.50393 16.0935 7.76087C15.9508 8.01781 15.7222 8.21628 15.4478 8.32142L14.9738 8.50242C13.4981 9.06742 12.2426 10.0909 11.3918 11.4224L8.52479 15.9084C8.43479 16.0484 8.36579 16.2024 8.31979 16.3624C8.06779 17.2274 7.89179 17.8424 7.78979 18.2054C7.73434 18.4024 7.68133 18.6001 7.63079 18.7984C7.44079 19.5204 7.34779 19.6794 7.33579 19.6794C6.46779 19.6794 5.82879 18.6954 5.82879 16.9804C5.82879 16.0964 6.15479 14.6454 6.81279 12.6654C6.85013 12.5528 6.86021 12.4329 6.84221 12.3156C6.8242 12.1983 6.77863 12.087 6.70923 11.9908C6.63982 11.8945 6.54858 11.8161 6.44298 11.762C6.33738 11.7079 6.22045 11.6796 6.10179 11.6794H3.25179C2.98518 11.6794 2.72208 11.6185 2.48259 11.5014C2.2431 11.3842 2.03355 11.2139 1.86993 11.0034C1.70631 10.7929 1.59295 10.5478 1.53851 10.2868C1.48406 10.0258 1.48998 9.75578 1.55579 9.49742L2.97079 3.94742C3.18259 3.11735 3.71356 2.40447 4.44821 1.96383C5.18286 1.52319 6.06177 1.39043 6.89379 1.59442L14.5218 3.46442C14.8465 3.54406 15.1415 3.71504 15.3721 3.95712C15.6027 4.19919 15.7591 4.50224 15.8228 4.83042L16.2278 6.91642Z" fill="black"/>
</svg>
