<svg width="32" height="32" viewBox="0 0 32 32" fill="none" xmlns="http://www.w3.org/2000/svg">
<path d="M21.4962 25.5067C21.8321 25.1779 22 24.7593 22 24.2511C22 23.7429 21.8321 23.3244 21.4962 22.9955L14.3512 16L21.4962 9.00448C21.8321 8.67564 22 8.2571 22 7.74888C22 7.24066 21.8321 6.82212 21.4962 6.49327C21.1603 6.16442 20.7328 6 20.2137 6C19.6947 6 19.2672 6.16442 18.9313 6.49327L10.5038 14.7444C10.3206 14.9238 10.1906 15.1181 10.1136 15.3274C10.0367 15.5366 9.99881 15.7608 10 16C10 16.2392 10.0385 16.4634 10.1154 16.6726C10.1924 16.8819 10.3219 17.0762 10.5038 17.2556L18.9313 25.5067C19.2672 25.8356 19.6947 26 20.2137 26C20.7328 26 21.1603 25.8356 21.4962 25.5067Z" fill="black"/>
</svg>
